<svg version="1.1" viewBox="0 0 1200 1200" xmlns="http://www.w3.org/2000/svg">
  <path
     id="rect1"
     style="display:inline;fill:#e60028;fill-opacity:1;stroke-width:1.02062"
     d="m 210,15 c -5.52285,0 -10,4.477152 -10,10 v 49.707031 c -4.8e-4,0.09763 0,0.195286 0,0.292969 0,29.72996 21.62287,54.40914 50,59.16992 v 96.66016 c -28.37713,4.76078 -50,29.43996 -50,59.16992 0,33.13708 26.86292,60 60,60 20.95578,0 39.40257,-10.74229 50.13281,-27.02148 L 380,355 v 55 10.17383 0.002 c 4.7e-4,62.99187 44.85792,115.50541 104.36718,127.33203 V 600 H 405 v 0.041 c -41.80679,1.34931 -74.99964,35.63042 -75,77.45898 3.7e-4,41.82855 33.19322,76.10967 75,77.45898 V 755 h 195 195 v -0.041 c 41.80678,-1.34931 74.99963,-35.63043 75,-77.45898 -3.6e-4,-41.82856 -33.19321,-76.10967 -75,-77.45898 V 600 H 715.63281 V 547.50781 C 775.14208,535.68118 819.99953,483.16765 820,420.17578 v -0.002 V 410 355 l 69.86719,-32.02148 C 900.59744,339.25771 919.04422,350 940,350 c 33.13708,0 60,-26.86292 60,-60 0,-29.72996 -21.62287,-54.40914 -50,-59.16992 v -96.66016 c 28.37714,-4.76078 50,-29.43996 50,-59.16992 0,-0.09768 5e-4,-0.19534 0,-0.292969 V 25 c 0,-5.522848 -4.4772,-10 -10,-10 -5.5228,0 -10,4.477152 -10,10 V 30.279297 74.707031 75 c 0,22.085198 -17.89761,39.98997 -39.98047,40 h -0.0391 C 917.89765,114.99 900,97.085198 900,75 V 74.707031 30.279297 25 c 0,-5.522848 -4.47715,-10 -10,-10 -5.52285,0 -10,4.477152 -10,10 v 49.707031 c -4.8e-4,0.09763 0,0.195286 0,0.292969 0,29.72996 21.62286,54.40914 50,59.16992 v 96.66016 c -28.37713,4.76078 -50,29.43996 -50,59.16992 0,5.70554 0.79554,11.22469 2.2832,16.45312 L 820,335 c 0,-24.85281 -20.14485,-45 -44.99414,-45 H 660 v -50 h 47.5 c 20.71068,0 37.5,-16.78932 37.5,-37.5 V 72.5 C 745,51.789322 728.21068,35 707.5,35 h -215 C 471.78932,35 455,51.789322 455,72.5 v 130 c 0,20.71068 16.78932,37.5 37.5,37.5 H 540 v 50 H 424.99414 C 400.14486,290 380,310.14719 380,335 L 317.7168,306.45312 C 319.20445,301.22469 320,295.70554 320,290 320,260.27004 298.37713,235.59086 270,230.83008 V 134.16992 C 298.37713,129.40914 320,104.72996 320,75 c 0,-0.09768 4.8e-4,-0.19534 0,-0.292969 V 25 c 0,-5.522848 -4.47715,-10 -10,-10 -5.52285,0 -10,4.477152 -10,10 V 30.279297 74.707031 75 c 0,22.085198 -17.89762,39.98997 -39.98047,40 h -0.0391 C 237.89766,114.99 220,97.085198 220,75 V 74.707031 30.279297 25 c 0,-5.522848 -4.47715,-10 -10,-10 z m 282.5,40 h 215 c 9.66498,0 17.5,7.835017 17.5,17.5 v 130 c 0,9.66498 -7.83502,17.5 -17.5,17.5 H 600 492.5 C 482.83502,220 475,212.16498 475,202.5 V 72.5 C 475,62.835017 482.83502,55 492.5,55 Z m 45,40 c -23.4721,0 -42.5,19.0279 -42.5,42.5 0,23.4721 19.0279,42.5 42.5,42.5 23.4721,0 42.5,-19.0279 42.5,-42.5 C 580,114.0279 560.9721,95 537.5,95 Z m 125,0 c -23.4721,0 -42.5,19.0279 -42.5,42.5 0,23.4721 19.0279,42.5 42.5,42.5 23.4721,0 42.5,-19.0279 42.5,-42.5 C 705,114.0279 685.9721,95 662.5,95 Z m -125,20 A 22.5,22.5 0 0 1 560,137.5 22.5,22.5 0 0 1 537.5,160 22.5,22.5 0 0 1 515,137.5 22.5,22.5 0 0 1 537.5,115 Z m 125,0 c 12.64227,-3.5e-4 22.50033,10.35773 22.5,23 3.3e-4,12.64227 -9.85773,22.00032 -22.5,22 -12.64227,3.2e-4 -22.50032,-9.85773 -22.5,-22.5 -3.1e-4,-12.64227 9.85773,-22.50034 22.5,-22.5 z M 560,240 h 80 v 50 h -80 z m -300,10 c 22.09139,0 40,17.90861 40,40 0,22.09139 -17.90861,40 -40,40 -22.09139,0 -40,-17.90861 -40,-40 0,-22.09139 17.90861,-40 40,-40 z m 680,0 c 22.09139,0 40,17.90861 40,40 0,22.09139 -17.90861,40 -40,40 -22.09139,0 -40,-17.90861 -40,-40 0,-22.09139 17.90861,-40 40,-40 z m -507.50195,59.99805 c 0.14451,-3.2e-4 0.28909,2.4e-4 0.43359,0.002 H 600 767.06835 c 0.14452,-0.002 0.28909,-0.002 0.4336,-0.002 17.94941,1.1e-4 32.49921,14.55059 32.50001,32.5 V 342.5332 410 h -0.002 v 0.17578 C 799.99951,476.3537 746.35165,530.00095 680.17383,530 H 680 600.03125 v 20 h 89.98633 0.17578 c 1.60922,-10e-6 3.2116,-0.0298 4.80664,-0.0879 V 600 h -95 -95 v -50.08789 c 1.59504,0.0581 3.19742,0.0879 4.80664,0.0879 h 0.17578 89.98633 v -20 H 520 519.82618 C 453.64836,530.00096 400.00054,476.35371 400,410.17579 V 410 h -0.002 v -67.4668 -0.0352 c 8e-4,-17.94941 14.55059,-32.49989 32.5,-32.5 z M 474.99414,360 C 469.47444,359.99932 465,364.47667 465,370 c 0,5.5228 6.71581,9.99994 15,10 H 600 720.00195 C 728.28614,379.99994 735,375.5228 735,370 c 0,-5.52333 -4.47443,-10.00068 -9.99414,-10 h -0.006 -5 -120 -120 -5 z m 0.006,50 c -5.48906,-2.7e-4 -10,4.49597 -10,10 0,5.50393 4.51083,10.00027 10,10 h 125 125 c 5.52306,2.9e-4 10,-4.47695 10,-10 0,-5.52305 -4.47694,-10.00029 -10,-10 H 600 Z m 5,50 c -8.28419,6e-5 -15,4.4772 -15,10 0,5.52333 4.47444,10.00068 9.99414,10 h 0.006 5 120 120 5 0.006 c 5.51971,6.8e-4 9.99414,-4.47667 9.99414,-10 0,-5.5228 -6.71386,-9.99994 -14.99805,-10 H 600.00042 Z m -75,160 h 2.5 192.5 192.5 2.5 c 30.75486,1.33843 54.99983,26.71603 55,57.5 -1.7e-4,30.78397 -24.24514,56.10688 -55,57.44531 V 735 h -195 -195 v -0.0547 C 374.245,733.6069 350.00017,708.28397 350,677.5 c 1.7e-4,-30.78397 24.24514,-56.16157 55,-57.5 z m 22.5,20 c -20.71068,0 -37.5,16.78932 -37.5,37.5 0,20.71068 16.78932,37.5 37.5,37.5 20.71068,0 37.5,-16.78932 37.5,-37.5 0,-20.71068 -16.78932,-37.5 -37.5,-37.5 z m 115,0 c -20.71068,0 -37.5,16.78932 -37.5,37.5 0,20.71068 16.78932,37.5 37.5,37.5 20.71068,0 37.5,-16.78932 37.5,-37.5 0,-20.71068 -16.78932,-37.5 -37.5,-37.5 z m 115,0 c -20.71068,0 -37.5,16.78932 -37.5,37.5 0,20.71068 16.78932,37.5 37.5,37.5 20.71068,0 37.5,-16.78932 37.5,-37.5 0,-20.71068 -16.78932,-37.5 -37.5,-37.5 z m 115,0 c -20.71068,0 -37.5,16.78932 -37.5,37.5 0,20.71068 16.78932,37.5 37.5,37.5 20.71068,0 37.5,-16.78932 37.5,-37.5 0,-20.71068 -16.78932,-37.5 -37.5,-37.5 z m -345,20 c 9.66498,0 17.5,7.83502 17.5,17.5 0,9.66498 -7.83502,17.5 -17.5,17.5 -9.66498,0 -17.5,-7.83502 -17.5,-17.5 0,-9.66498 7.83502,-17.5 17.5,-17.5 z m 115,0 c 9.66498,0 17.5,7.83502 17.5,17.5 0,9.66498 -7.83502,17.5 -17.5,17.5 -9.66498,0 -17.5,-7.83502 -17.5,-17.5 0,-9.66498 7.83502,-17.5 17.5,-17.5 z m 115,0 c 9.66498,0 17.5,7.83502 17.5,17.5 0,9.66498 -7.83502,17.5 -17.5,17.5 -9.66498,0 -17.5,-7.83502 -17.5,-17.5 0,-9.66498 7.83502,-17.5 17.5,-17.5 z m 115,0 c 9.66498,0 17.5,7.83502 17.5,17.5 0,9.66498 -7.83502,17.5 -17.5,17.5 -9.66498,0 -17.5,-7.83502 -17.5,-17.5 0,-9.66498 7.83502,-17.5 17.5,-17.5 z M 302.5,795 v 250 h 50 V 945 l 37.5,100 h 50 L 402.5,945 H 415 c 13.80712,0 25,-11.19288 25,-25 V 820 c 0,-13.80712 -11.19288,-25 -25,-25 z m 157.5,0 v 250 h 50 V 895 l 30,100 h 50 l 30,-100 v 150 h 50 V 795 H 590 L 565,895 540,795 Z m 230,0 v 250 h 50 V 795 Z m 70,0 v 50 h 43.75 v 200 h 50 V 845 H 897.5 V 795 Z M 352.5,845 H 390 v 50 h -37.5 z m -50,240 v 100 h 45 c 5.52285,0 10,-4.4772 10,-10 v -30 c 0,-5.5228 -4.47715,-10 -10,-10 5.52285,0 10,-4.4772 10,-10 v -30 c 0,-5.5228 -4.47715,-10 -10,-10 z m 70,0 -10,100 h 20 l 2,-20 h 11 l 2,20 h 20 l -10,-100 z m 50,0 v 20 H 440 v 80 h 20 v -80 h 17.5 v -20 z m 59.98633,0 v 20 h 17.49999 v 80 H 520 v -80 h 17.48633 v -20 z m 60.01367,0 v 100 h 55 v -20 h -35 v -80 z m 60,0 v 100 h 55 v -20 h -35 v -20 h 35 v -20 h -35 v -20 h 35 v -20 z m 59.75,0 v 100 h 45 c 5.52285,0 10,-4.4772 10,-10 v -30 c 0,-5.5228 -4.47715,-10 -10,-10 5.52285,0 10,-4.4772 10,-10 v -30 c 0,-5.5228 -4.47715,-10 -10,-10 z m 70.25,0 c -5.52285,0 -10,4.4772 -10,10 v 80 c 0,5.5228 4.47715,10 10,10 h 35 c 5.52285,0 10,-4.4772 10,-10 v -80 c 0,-5.5228 -4.47715,-10 -10,-10 z m 50,0 v 20 H 800 v 80 h 20 v -80 h 17.5 v -20 z m 70,0 c -5.52285,0 -10,4.4772 -10,10 v 40 c 0,5.5228 4.47715,10 10,10 h 25 v 20 h -15 v -10 h -20 v 20 c 0,5.5228 4.47715,10 10,10 h 35 c 5.52285,0 10,-4.4772 10,-10 v -40 c 0,-5.5228 -4.47715,-10 -10,-10 h -25 v -20 h 15 v 10 h 20 v -20 c 0,-5.5228 -4.47715,-10 -10,-10 z m -530,20 h 15 v 20 h -15 z m 359.75,0 h 15 v 20 h -15 z m 60.25,0 h 15 v 60 h -15 z m -352.5,5 3.5,35 h -7 z m -67.5,35 h 15 v 20 h -15 z m 359.75,0 h 15 v 20 h -15 z" />
</svg>
